PathFileType	4	(X/Y/Z)	 s04c0101.trc
DataRate	CameraRate	NumFrames	NumMarkers	Units	OrigDataRate	OrigDataStartFrame	OrigNumFrames
200	200	4	51	mm	200	751	2000
Frame#	Time	racr			lacr			c7			jug			rlel			rdr			llel			ldr			s2			lic			ric			lasi			rasi			rpsi			lpsi			rgt			lgt			rth1			rth2			rth3			rth4			rlfc			rmfc			rsh1			rsh2			rsh3			rsh4			rlmal			rmmal			rcal			rtoe			rmt5			lth1			lth2			lth4			lth3			llfc			lmfc			lsh1			lsh2			lsh3			lsh4			llmal			lmmal			lcal			ltoe			lmt1			lmt5			SBIKE			LBIKE			RBIKE			
		X1	Y1	Z1	X2	Y2	Z2	X3	Y3	Z3	X4	Y4	Z4	X5	Y5	Z5	X6	Y6	Z6	X7	Y7	Z7	X8	Y8	Z8	X9	Y9	Z9	X10	Y10	Z10	X11	Y11	Z11	X12	Y12	Z12	X13	Y13	Z13	X14	Y14	Z14	X15	Y15	Z15	X16	Y16	Z16	X17	Y17	Z17	X18	Y18	Z18	X19	Y19	Z19	X20	Y20	Z20	X21	Y21	Z21	X22	Y22	Z22	X23	Y23	Z23	X24	Y24	Z24	X25	Y25	Z25	X26	Y26	Z26	X27	Y27	Z27	X28	Y28	Z28	X29	Y29	Z29	X30	Y30	Z30	X31	Y31	Z31	X32	Y32	Z32	X33	Y33	Z33	X34	Y34	Z34	X35	Y35	Z35	X36	Y36	Z36	X37	Y37	Z37	X38	Y38	Z38	X39	Y39	Z39	X40	Y40	Z40	X41	Y41	Z41	X42	Y42	Z42	X43	Y43	Z43	X44	Y44	Z44	X45	Y45	Z45	X46	Y46	Z46	X47	Y47	Z47	X48	Y48	Z48	X49	Y49	Z49	X50	Y50	Z50	X51	Y51	Z51	
751	3.7550	488.805113	1390.660336	-116.686828	483.948702	1395.624550	-391.391086	462.147291	1456.654471	-254.980004	436.702724	1304.888086	-263.605580	464.488193	1094.087784	24.522538	682.544219	918.347997	-76.584725	501.215992	1131.597993	-529.949251	699.039258	915.957117	-454.252573	-71.403749	1173.853364	-268.132690	84.077899	1208.999528	-424.898203	76.847421	1193.507650	-101.804192	123.518506	1162.396478	-377.620346	116.178825	1161.378196	-100.972576	-49.229403	1218.361190	-222.706194	-52.228388	1223.473238	-296.979564	38.847758	1123.810927	-91.179270	58.564121	1110.746243	-453.280251	146.637638	999.839855	-77.361818	217.042210	946.150601	-86.213797	252.666593	869.226416	-92.375323	243.238800	969.173540	-99.667727	333.632393	746.029976	-116.091226	311.410157	720.847931	-227.144116	274.357670	621.725064	-82.527922	307.268015	532.147362	-99.008143	267.168434	456.257518	-104.170273	339.115226	529.918834	-123.009871	250.365574	303.000138	-105.954552	270.035870	312.982726	-191.269756	183.786853	270.309104	-140.011090	483.257730	254.467605	-151.545986	420.963108	228.607217	-91.531009	131.579694	1048.974407	-462.607714	214.975639	1025.724773	-464.234729	232.902753	1054.621626	-451.128631	277.658262	962.920535	-472.724039	386.225233	856.480082	-451.939920	408.216090	826.872402	-342.756643	321.258756	760.768527	-475.740785	272.355511	693.812150	-448.689993	192.931389	653.406653	-447.591381	291.538075	678.694333	-418.504885	81.245857	561.460456	-440.543224	76.421820	564.203192	-353.603922	4.096130	593.491627	-399.695571	224.738279	385.075182	-401.573560	155.779676	415.271578	-353.931477	149.040961	404.912107	-463.890108	-179.041842	941.252501	-277.283451	-4.280700	85.798636	-483.825120	-15.783758	80.241978	-83.228998	
752	3.7600	490.652118	1391.788076	-117.608213	483.869574	1398.007534	-392.032287	462.927298	1458.322277	-256.178282	437.307115	1306.371096	-264.682145	469.098153	1096.388270	25.994339	684.174862	917.653039	-76.151422	502.581710	1133.474377	-528.642666	699.429218	916.442062	-453.506853	-70.730311	1176.210602	-266.223584	83.259291	1211.956281	-423.593349	78.752167	1194.305581	-100.859477	122.812345	1164.705459	-377.084416	117.954851	1161.924191	-100.541507	-47.908191	1220.259552	-220.641672	-51.372459	1226.114673	-294.765828	39.927580	1124.319855	-90.498213	58.771396	1116.103505	-453.256274	145.106824	998.256788	-75.768373	213.641721	942.143579	-85.094271	247.006485	864.173060	-91.321293	240.479160	964.481949	-98.287577	325.000562	738.984671	-114.839164	302.287679	714.149286	-225.528713	266.133202	615.474412	-81.281641	300.334801	525.305062	-98.097339	260.563406	449.080002	-103.037147	331.837018	523.353427	-121.871457	244.917093	295.563815	-105.036077	264.508546	306.031704	-190.326917	178.230268	263.820918	-139.079463	477.678480	244.325599	-151.758017	415.210240	219.110906	-91.581277	132.263757	1054.991493	-462.611721	215.982011	1033.113335	-464.652670	233.523673	1062.180602	-451.466001	279.655585	971.280207	-473.403929	390.833220	866.476270	-453.202013	413.837065	836.624175	-344.888809	326.269639	770.659825	-476.754481	277.616358	703.483541	-449.412716	198.340432	662.725045	-447.951529	296.900023	688.278942	-419.291553	87.175288	570.411610	-440.636045	82.026815	573.289411	-353.267338	9.792896	602.038816	-399.394140	230.593372	393.912835	-399.796353	160.702383	424.022424	-352.923667	155.650357	414.205758	-463.568093	-178.879108	941.395810	-277.251032	-4.237990	85.928202	-483.774385	-15.750070	80.276795	-83.194357	
753	3.7650	492.380620	1393.081303	-118.473692	483.861440	1400.330446	-392.667358	463.572591	1459.908676	-257.317575	437.845005	1307.513273	-265.602191	473.883778	1098.769584	27.254280	685.962737	916.827199	-75.682057	504.179365	1135.326585	-527.327834	699.877708	917.048242	-452.742689	-69.964324	1178.611025	-262.872174	82.517603	1215.025498	-422.497901	80.564264	1195.138592	-100.048090	122.242982	1167.140860	-376.817650	119.634087	1162.532064	-101.252457	-49.539867	1223.158345	-216.529154	-50.381798	1228.650703	-292.687022	41.027501	1124.872792	-89.860196	58.818011	1121.488236	-453.229099	143.072576	996.544614	-74.699257	209.908550	938.499821	-83.849453	240.949821	859.502686	-90.127041	237.487073	960.100280	-96.919524	315.973630	732.431922	-113.425637	292.817667	707.841116	-223.985201	257.852989	609.580477	-80.046801	292.800445	518.874355	-96.889367	253.548249	442.314490	-101.900797	324.245912	517.319798	-120.661218	238.738482	288.476100	-104.390449	258.809735	299.175957	-189.657757	172.103452	257.826983	-138.428441	471.371384	234.689798	-152.057281	408.778530	210.179182	-91.753983	132.775561	1060.916996	-462.831270	216.836856	1040.482004	-465.159175	233.935220	1069.754935	-451.781089	281.533157	979.725354	-474.325737	394.859366	876.656330	-454.541146	418.953398	847.111962	-345.415488	331.333836	780.559038	-477.657620	283.129969	713.049138	-450.091068	204.462008	671.497813	-447.132638	302.637513	698.086815	-420.061850	93.503003	578.979636	-440.300121	87.770650	581.877366	-352.923341	16.089877	610.193598	-399.023174	239.261418	403.723504	-400.222835	167.968274	432.693020	-352.403565	162.819789	423.097244	-463.143552	-178.620036	941.591951	-276.847092	-4.198297	86.085024	-483.731731	-15.733300	80.327507	-83.136479	
754	3.7700	494.074036	1394.412117	-119.281997	483.926768	1402.522599	-393.126013	464.209442	1461.318986	-258.428193	438.281046	1309.204479	-266.563787	478.690514	1101.115768	28.275177	687.575345	916.085039	-75.878103	505.732848	1137.135583	-526.218355	700.378096	917.839774	-452.173479	-69.332271	1180.799025	-260.362107	81.628293	1217.965939	-421.273853	82.385282	1196.098046	-99.250599	121.460231	1169.399326	-376.440880	121.387523	1163.310883	-99.974280	-45.523221	1223.796741	-216.553832	-50.088380	1230.826835	-290.357966	42.007689	1125.433774	-89.283538	58.805446	1126.866530	-453.182938	140.625164	995.012165	-74.084487	205.930574	934.950713	-82.805788	234.687889	855.319098	-88.680082	234.217735	955.940330	-95.498268	306.381036	726.500301	-111.488614	283.102080	701.843936	-222.329276	249.570522	604.059065	-78.829629	284.766278	513.033397	-95.371119	246.076928	436.090423	-100.995408	316.145954	511.656963	-119.685256	231.923430	281.845547	-104.202269	252.345010	292.708576	-189.246813	165.469130	252.426094	-137.979027	464.568557	225.479629	-152.348477	401.713734	201.758901	-91.915396	133.121314	1066.710885	-463.241517	217.552630	1047.816622	-465.835187	234.155452	1077.307259	-452.059322	283.307328	988.336741	-475.349200	399.027365	886.869308	-456.159075	424.377138	857.196753	-345.658401	336.386835	790.589555	-478.552531	288.884248	722.764557	-450.787489	210.482465	680.611175	-447.362736	308.603563	707.869736	-420.936529	100.278967	587.170059	-439.763716	95.478044	589.903589	-352.545938	22.573229	617.858683	-398.320764	246.900072	412.616951	-400.048478	175.609199	440.845537	-352.068025	170.735454	431.816557	-462.955258	-178.471423	941.738892	-276.613879	-4.156302	86.246694	-483.683808	-15.719937	80.355576	-83.109359	
